<svg width="22" height="33" viewBox="0 0 22 33" fill="none" xmlns="http://www.w3.org/2000/svg">
<g clip-path="url(#clip0_11_269)">
<path d="M5.66097 32.9375C8.60497 32.9375 10.9943 30.5482 10.9943 27.6042V22.2709H5.66097C2.71697 22.2709 0.327637 24.6602 0.327637 27.6042C0.327637 30.5482 2.71697 32.9375 5.66097 32.9375Z" fill="#0ACF83"/>
<path d="M0.327637 16.9375C0.327637 13.9935 2.71697 11.6041 5.66097 11.6041H10.9943V22.2708H5.66097C2.71697 22.2708 0.327637 19.8815 0.327637 16.9375Z" fill="#A259FF"/>
<path d="M0.327637 6.27083C0.327637 3.32683 2.71697 0.9375 5.66097 0.9375H10.9943V11.6042H5.66097C2.71697 11.6042 0.327637 9.21483 0.327637 6.27083Z" fill="#F24E1E"/>
<path d="M10.9946 0.9375H16.328C19.272 0.9375 21.6613 3.32683 21.6613 6.27083C21.6613 9.21483 19.272 11.6042 16.328 11.6042H10.9946V0.9375Z" fill="#FF7262"/>
<path d="M21.6613 16.9375C21.6613 19.8815 19.272 22.2708 16.328 22.2708C13.384 22.2708 10.9946 19.8815 10.9946 16.9375C10.9946 13.9935 13.384 11.6041 16.328 11.6041C19.272 11.6041 21.6613 13.9935 21.6613 16.9375Z" fill="#1ABCFE"/>
</g>
<defs>
<clipPath id="clip0_11_269">
<rect width="21.3376" height="32" fill="white" transform="translate(0.325684 0.9375)"/>
</clipPath>
</defs>
</svg>
