<svg width="30" height="33" viewBox="0 0 30 33" fill="none" xmlns="http://www.w3.org/2000/svg">
<g clip-path="url(#clip0_11_258)">
<path fill-rule="evenodd" clip-rule="evenodd" d="M14.6514 3.14648L26.5947 10.042V23.833L14.6514 30.7285L2.70801 23.833V10.042L14.6514 3.14648ZM4.04807 10.8157V20.9455L12.8208 5.75075L4.04807 10.8157ZM14.6514 5.26025L4.53857 22.7761H24.7642L14.6514 5.26025ZM23.4241 24.1162H5.87863L14.6514 29.1811L23.4241 24.1162ZM25.2547 20.9455L16.4819 5.75075L25.2547 10.8157V20.9455Z" fill="#E10098"/>
<path d="M14.6515 6.74258C16.2103 6.74258 17.4739 5.47895 17.4739 3.92018C17.4739 2.36141 16.2103 1.09778 14.6515 1.09778C13.0927 1.09778 11.8291 2.36141 11.8291 3.92018C11.8291 5.47895 13.0927 6.74258 14.6515 6.74258Z" fill="#E10098"/>
<path d="M25.9249 13.2512C27.4837 13.2512 28.7473 11.9876 28.7473 10.4288C28.7473 8.87008 27.4837 7.60645 25.9249 7.60645C24.3662 7.60645 23.1025 8.87008 23.1025 10.4288C23.1025 11.9876 24.3662 13.2512 25.9249 13.2512Z" fill="#E10098"/>
<path d="M25.9249 26.2686C27.4837 26.2686 28.7473 25.0049 28.7473 23.4462C28.7473 21.8874 27.4837 20.6238 25.9249 20.6238C24.3662 20.6238 23.1025 21.8874 23.1025 23.4462C23.1025 25.0049 24.3662 26.2686 25.9249 26.2686Z" fill="#E10098"/>
<path d="M14.6515 32.7772C16.2103 32.7772 17.4739 31.5136 17.4739 29.9548C17.4739 28.3961 16.2103 27.1324 14.6515 27.1324C13.0927 27.1324 11.8291 28.3961 11.8291 29.9548C11.8291 31.5136 13.0927 32.7772 14.6515 32.7772Z" fill="#E10098"/>
<path d="M3.3766 26.2686C4.93537 26.2686 6.199 25.0049 6.199 23.4462C6.199 21.8874 4.93537 20.6238 3.3766 20.6238C1.81783 20.6238 0.554199 21.8874 0.554199 23.4462C0.554199 25.0049 1.81783 26.2686 3.3766 26.2686Z" fill="#E10098"/>
<path d="M3.3766 13.2512C4.93537 13.2512 6.199 11.9876 6.199 10.4288C6.199 8.87008 4.93537 7.60645 3.3766 7.60645C1.81783 7.60645 0.554199 8.87008 0.554199 10.4288C0.554199 11.9876 1.81783 13.2512 3.3766 13.2512Z" fill="#E10098"/>
</g>
<defs>
<clipPath id="clip0_11_258">
<rect width="29" height="32" fill="white" transform="translate(0.325684 0.9375)"/>
</clipPath>
</defs>
</svg>
