<svg width="33" height="33" viewBox="0 0 33 33" fill="none" xmlns="http://www.w3.org/2000/svg">
<g clip-path="url(#clip0_11_244)">
<mask id="mask0_11_244" style="mask-type:alpha" maskUnits="userSpaceOnUse" x="0" y="0" width="33" height="33">
<path d="M16.9619 32.9375C25.7985 32.9375 32.9619 25.7741 32.9619 16.9375C32.9619 8.10094 25.7985 0.9375 16.9619 0.9375C8.12536 0.9375 0.961914 8.10094 0.961914 16.9375C0.961914 25.7741 8.12536 32.9375 16.9619 32.9375Z" fill="black"/>
</mask>
<g mask="url(#mask0_11_244)">
<path d="M16.9619 32.9375C25.7985 32.9375 32.9619 25.7741 32.9619 16.9375C32.9619 8.10094 25.7985 0.9375 16.9619 0.9375C8.12536 0.9375 0.961914 8.10094 0.961914 16.9375C0.961914 25.7741 8.12536 32.9375 16.9619 32.9375Z" fill="black" stroke="white" stroke-width="2.66667"/>
<path d="M27.5412 28.941L13.2539 10.5375H10.562V23.3321H12.7155V13.2723L25.8507 30.2433C26.4434 29.8466 27.0081 29.4113 27.5412 28.941Z" fill="url(#paint0_linear_11_244)"/>
<path d="M23.5396 10.5375H21.4062V23.3375H23.5396V10.5375Z" fill="url(#paint1_linear_11_244)"/>
</g>
</g>
<defs>
<linearGradient id="paint0_linear_11_244" x1="20.3398" y1="21.6486" x2="26.6509" y2="29.4708" gradientUnits="userSpaceOnUse">
<stop stop-color="white"/>
<stop offset="1" stop-color="white" stop-opacity="0"/>
</linearGradient>
<linearGradient id="paint1_linear_11_244" x1="22.4729" y1="10.5375" x2="22.4372" y2="19.9375" gradientUnits="userSpaceOnUse">
<stop stop-color="white"/>
<stop offset="1" stop-color="white" stop-opacity="0"/>
</linearGradient>
<clipPath id="clip0_11_244">
<rect width="32" height="32" fill="white" transform="translate(0.961914 0.9375)"/>
</clipPath>
</defs>
</svg>
