<svg width="36" height="33" viewBox="0 0 36 33" fill="none" xmlns="http://www.w3.org/2000/svg">
<path d="M17.9809 20.1161C19.7542 20.1161 21.1918 18.6786 21.1918 16.9052C21.1918 15.1319 19.7542 13.6943 17.9809 13.6943C16.2076 13.6943 14.77 15.1319 14.77 16.9052C14.77 18.6786 16.2076 20.1161 17.9809 20.1161Z" fill="#00D8FF"/>
<path d="M17.981 24.2671C14.1217 24.3605 10.272 23.8403 6.57592 22.7259C4.86852 22.1847 3.27606 21.3321 1.87902 20.2111C1.34592 19.8282 0.901969 19.3345 0.57763 18.7639C0.253292 18.1932 0.0562416 17.5592 0 16.9052C0 14.7822 2.3324 12.7015 6.23942 11.3401C10.0344 10.1337 13.9994 9.54909 17.981 9.60876C21.9095 9.55387 25.8214 10.128 29.5685 11.3093C31.2129 11.8335 32.7513 12.6449 34.1126 13.7059C34.6366 14.0709 35.0739 14.5468 35.3935 15.0996C35.7131 15.6525 35.9072 16.2689 35.9621 16.9052C35.9621 19.1117 33.3548 21.3478 29.1549 22.7375C25.5304 23.8155 21.762 24.3314 17.981 24.2671ZM17.981 11.1449C14.1718 11.0939 10.3787 11.6497 6.74417 12.7914C3.14796 14.0462 1.53609 15.7621 1.53609 16.9013C1.53609 18.0932 3.26869 19.9671 7.07297 21.2682C10.6089 22.3289 14.2906 22.8226 17.981 22.7311C21.5983 22.7957 25.2042 22.3063 28.6733 21.2797C32.6227 19.971 34.4208 18.0945 34.4208 16.9052C34.356 16.4971 34.2073 16.1068 33.984 15.7591C33.7607 15.4113 33.4678 15.1137 33.1236 14.8849C31.9057 13.9437 30.5314 13.2245 29.0638 12.7606C25.4791 11.6352 21.7377 11.0897 17.981 11.1449Z" fill="#00D8FF"/>
<path d="M10.6856 32.9199C10.0865 32.9337 9.49441 32.7883 8.96974 32.4987C7.13054 31.4378 6.4935 28.3784 7.2654 24.3134C8.11648 20.4232 9.59112 16.6963 11.6322 13.2769C13.5469 9.84655 15.998 6.74458 18.8927 4.08864C20.1683 2.92591 21.6398 1.9984 23.239 1.3491C23.8174 1.07802 24.4484 0.9375 25.0872 0.9375C25.726 0.9375 26.3569 1.07802 26.9354 1.3491C28.8478 2.45108 29.481 5.82637 28.5883 10.1585C27.711 13.8376 26.2746 17.3605 24.3294 20.6042C22.4821 23.9941 20.1082 27.0691 17.2962 29.7142C15.9744 30.9225 14.4403 31.8757 12.7714 32.5256C12.1033 32.7736 11.3982 32.9069 10.6856 32.9199ZM12.9628 14.0399C11.0159 17.3141 9.6025 20.8774 8.77581 24.596C8.06556 28.3399 8.74755 30.5914 9.73908 31.1642C10.7666 31.7589 13.2608 31.195 16.2893 28.5493C18.9737 26.0152 21.2395 23.0717 23.0026 19.8285C24.8662 16.7274 26.244 13.3593 27.0882 9.84128C27.9282 5.76344 27.2025 3.26665 26.1724 2.67327C25.7864 2.52535 25.3738 2.45913 24.9609 2.47881C24.5479 2.49848 24.1435 2.60362 23.7733 2.78758C22.3498 3.37498 21.0411 4.20889 19.9073 5.25098C17.1417 7.79502 14.8003 10.7647 12.9718 14.0476L12.9628 14.0399Z" fill="#00D8FF"/>
<path d="M25.2723 32.9367C23.532 32.9367 21.3217 31.8835 19.0201 29.9043C16.0747 27.2242 13.5821 24.0854 11.6389 20.6094C9.62337 17.2371 8.16041 13.5641 7.30545 9.72958C6.93466 8.04256 6.86596 6.30315 7.10252 4.59214C7.15721 3.95742 7.35048 3.34242 7.66871 2.79052C7.98693 2.23862 8.42236 1.76325 8.94429 1.39794C10.8541 0.292107 14.0946 1.42876 17.4018 4.36481C20.1511 6.96202 22.4858 9.96552 24.3245 13.2706C26.3387 16.5641 27.8171 20.1567 28.7042 23.914C29.0909 25.663 29.1506 27.4684 28.8801 29.239C28.8158 29.892 28.611 30.5233 28.2798 31.0897C27.9486 31.6561 27.4988 32.1442 26.9613 32.5205C26.4452 32.8066 25.8623 32.9502 25.2723 32.9367ZM12.9682 19.8362C14.8323 23.1581 17.2134 26.1621 20.0219 28.7355C22.9104 31.2208 25.2017 31.7551 26.1868 31.1758C27.2143 30.5786 27.9721 28.1409 27.1912 24.1966C26.3356 20.6093 24.9177 17.18 22.99 14.036C21.2354 10.8728 19.0069 7.9968 16.382 5.50789C13.2687 2.74395 10.7437 2.12617 9.71491 2.72211C9.39426 2.98269 9.13112 3.30691 8.94211 3.67432C8.7531 4.04173 8.64233 4.44434 8.61678 4.85672C8.41257 6.38265 8.47909 7.93264 8.81329 9.43546C9.63566 13.1025 11.0387 16.6145 12.9695 19.8388L12.9682 19.8362Z" fill="#00D8FF"/>
</svg>
