<svg width="54" height="33" viewBox="0 0 54 33" fill="none" xmlns="http://www.w3.org/2000/svg">
<g clip-path="url(#clip0_11_252)">
<mask id="mask0_11_252" style="mask-type:luminance" maskUnits="userSpaceOnUse" x="0" y="0" width="54" height="33">
<path d="M0.961914 0.9375H53.3256V32.3557H0.961914V0.9375Z" fill="white"/>
</mask>
<g mask="url(#mask0_11_252)">
<path fill-rule="evenodd" clip-rule="evenodd" d="M27.1437 0.9375C20.1619 0.9375 15.7983 4.42841 14.0528 11.4102C16.671 7.91932 19.7256 6.61023 23.2165 7.48295C25.2082 7.98041 26.6317 9.42623 28.2075 11.0253C30.7743 13.6308 33.7454 16.6466 40.2346 16.6466C47.2165 16.6466 51.5801 13.1557 53.3256 6.17386C50.7074 9.66477 47.6528 10.9739 44.1619 10.1011C42.1702 9.60368 40.7466 8.15786 39.1709 6.55883C36.6041 3.95326 33.6329 0.9375 27.1437 0.9375ZM14.0528 16.6466C7.071 16.6466 2.70737 20.1375 0.961914 27.1193C3.5801 23.6284 6.63464 22.3193 10.1256 23.192C12.1173 23.6905 13.5408 25.1353 15.1166 26.7343C17.6834 29.3399 20.6545 32.3557 27.1437 32.3557C34.1255 32.3557 38.4892 28.8648 40.2346 21.883C37.6165 25.3739 34.5619 26.683 31.071 25.8102C29.0792 25.3128 27.6557 23.867 26.08 22.2679C23.5132 19.6623 20.542 16.6466 14.0528 16.6466Z" fill="#38BDF8"/>
</g>
</g>
<defs>
<clipPath id="clip0_11_252">
<rect width="52.3636" height="32" fill="white" transform="translate(0.961914 0.9375)"/>
</clipPath>
</defs>
</svg>
