<svg width="33" height="33" viewBox="0 0 33 33" fill="none" xmlns="http://www.w3.org/2000/svg">
<g clip-path="url(#clip0_11_266)">
<path d="M6.41553 16.9375C6.41553 11.4756 10.8564 7.03186 16.3131 7.03186C21.7697 7.03186 26.2106 11.4756 26.2106 16.9375C26.2106 22.3994 21.7697 26.8432 16.3131 26.8432C10.8564 26.8432 6.41553 22.3994 6.41553 16.9375ZM10.4323 16.9375C10.4323 20.1877 13.0645 22.8226 16.3131 22.8226C19.5617 22.8226 22.1939 20.1877 22.1939 16.9375C22.1939 13.6874 19.5617 11.0525 16.3131 11.0525C13.0645 11.0525 10.4323 13.6874 10.4323 16.9375Z" fill="white" stroke="black"/>
<path fill-rule="evenodd" clip-rule="evenodd" d="M17.1844 4.82268V0.9375C25.6225 1.389 32.3257 8.3804 32.3257 16.9374C32.3257 25.4945 25.6225 32.4841 17.1844 32.9375V29.0523C23.4732 28.6027 28.4532 23.3437 28.4532 16.9374C28.4532 10.5313 23.4732 5.27224 17.1844 4.82268ZM7.14313 24.8823C5.47604 22.9561 4.40144 20.5029 4.20975 17.8095H0.325684C0.527051 21.5784 2.03343 24.9985 4.39369 27.6319L7.14119 24.8823H7.14313ZM15.4418 32.9375V29.0523C12.7485 28.8605 10.2972 27.787 8.37264 26.1166L5.62516 28.8662C8.25843 31.2303 11.6758 32.736 15.4398 32.9375H15.4418Z" fill="url(#paint0_linear_11_266)"/>
</g>
<defs>
<linearGradient id="paint0_linear_11_266" x1="17.8118" y1="3.18745" x2="2.06183" y2="18.925" gradientUnits="userSpaceOnUse">
<stop stop-color="#0096FF"/>
<stop offset="1" stop-color="#FF1E56"/>
</linearGradient>
<clipPath id="clip0_11_266">
<rect width="32" height="32" fill="white" transform="translate(0.325684 0.9375)"/>
</clipPath>
</defs>
</svg>
