<svg width="32" height="32" viewBox="0 0 32 32" fill="none" xmlns="http://www.w3.org/2000/svg">
<g clip-path="url(#clip0_12_2)">
<path d="M27.2 0H4.8C2.14903 0 0 2.14903 0 4.8V27.2C0 29.851 2.14903 32 4.8 32H27.2C29.851 32 32 29.851 32 27.2V4.8C32 2.14903 29.851 0 27.2 0Z" fill="#3178C6"/>
<path d="M14.5625 17.75H18.5625V15.1875H7.375V17.75H11.375V29.1875H14.5625V17.75ZM19.8125 28.5625C20.3188 28.825 20.9375 29.0187 21.625 29.15C22.3125 29.2812 23.0625 29.3438 23.8125 29.3438C24.5625 29.3438 25.25 29.275 25.9375 29.1313C26.625 28.9875 27.1875 28.75 27.6875 28.4438C28.1938 28.1125 28.625 27.6938 28.875 27.1313C29.125 26.5688 29.3188 25.9438 29.3188 25.1313C29.3188 24.5625 29.2313 24.0688 29.0625 23.6313C28.8937 23.1938 28.65 22.8188 28.3125 22.5063C27.9938 22.175 27.625 21.8813 27.1875 21.6313C26.75 21.3813 26.25 21.1188 25.6875 20.8813C25.275 20.7125 24.9375 20.55 24.5625 20.3875C24.2375 20.225 23.9562 20.0625 23.75 19.9C23.5187 19.7312 23.3438 19.5563 23.2188 19.375C23.0938 19.1875 23.0312 18.9813 23.0312 18.75C23.0312 18.5375 23.0869 18.3438 23.2 18.1688C23.3131 17.9938 23.4688 17.85 23.6688 17.725C23.8688 17.6 24.1188 17.5063 24.4188 17.4375C24.7125 17.3687 25.0375 17.3375 25.4188 17.3375C25.6813 17.3375 25.9563 17.3569 26.2313 17.3962C26.5188 17.4356 26.8125 17.4962 27.1063 17.5775C27.4 17.6587 27.6875 17.7588 27.9813 17.8838C28.2563 18.0088 28.5125 18.1525 28.7313 18.315V15.3775C28.2563 15.1962 27.7313 15.0587 27.1688 14.9712C26.6063 14.8837 25.9813 14.84 25.2313 14.84C24.4813 14.84 23.7938 14.9213 23.1063 15.0775C22.4188 15.2338 21.8563 15.4838 21.3563 15.8275C20.85 16.165 20.4813 16.5775 20.1688 17.14C19.875 17.665 19.7313 18.265 19.7313 19.015C19.7313 19.9525 20 20.765 20.5438 21.39C21.0813 22.0775 21.9188 22.5775 22.9813 23.0775C23.4125 23.2525 23.7938 23.4275 24.1688 23.5963C24.5438 23.765 24.8563 23.94 25.1063 24.1213C25.375 24.3025 25.5875 24.5025 25.7313 24.715C25.8875 24.9275 25.9688 25.1775 25.9688 25.465C25.9688 25.665 25.92 25.8525 25.825 26.0275C25.73 26.2025 25.5813 26.3525 25.3813 26.4775C25.1813 26.6025 24.9375 26.7025 24.6313 26.7775C24.3375 26.8463 24.0063 26.8838 23.5688 26.8838C22.8813 26.8838 22.1938 26.765 21.5688 26.5275C20.8813 26.29 20.2562 25.9338 19.8125 25.5625V28.5625Z" fill="white"/>
</g>
<defs>
<clipPath id="clip0_12_2">
<rect width="32" height="32" fill="white"/>
</clipPath>
</defs>
</svg>
